<svg id="Header_detail" data-name="Header detail" xmlns="http://www.w3.org/2000/svg" xmlns:xlink="http://www.w3.org/1999/xlink" width="1422.653" height="847" viewBox="0 0 1422.653 847">
  <defs>
    <linearGradient id="linear-gradient" x1="0.5" x2="-3.911" y2="0.413" gradientUnits="objectBoundingBox">
      <stop offset="0" stop-color="#f0873c"/>
      <stop offset="1" stop-color="#e28340"/>
    </linearGradient>
  </defs>
  <rect id="Rectangle_7" data-name="Rectangle 7" width="86.047" height="415.66" transform="translate(1293.943 301.801)" fill="url(#linear-gradient)"/>
  <rect id="Rectangle_14" data-name="Rectangle 14" width="86" height="398" transform="translate(514.492 449)" fill="url(#linear-gradient)"/>
  <rect id="Rectangle_16" data-name="Rectangle 16" width="86" height="320" transform="translate(514.492)" fill="url(#linear-gradient)"/>
  <rect id="Rectangle_13" data-name="Rectangle 13" width="86.047" height="96.452" transform="translate(1359.723 427.586) rotate(43)" fill="url(#linear-gradient)"/>
  <rect id="Rectangle_10" data-name="Rectangle 10" width="86.047" height="807.727" transform="translate(1269.421 739.329) rotate(90)" fill="url(#linear-gradient)"/>
  <rect id="Rectangle_11" data-name="Rectangle 11" width="86.047" height="807.727" transform="translate(1159.791 631.537) rotate(90)" fill="url(#linear-gradient)"/>
  <rect id="Rectangle_17" data-name="Rectangle 17" width="86.047" height="807.727" transform="translate(937.266 523.744) rotate(90)" fill="url(#linear-gradient)"/>
  <rect id="Rectangle_8" data-name="Rectangle 8" width="91.598" height="91.598" transform="translate(1269.421 782.231) rotate(-45)" fill="url(#linear-gradient)"/>
  <rect id="Rectangle_12" data-name="Rectangle 12" width="91.598" height="91.598" transform="translate(1159.791 674.56) rotate(-45)" fill="url(#linear-gradient)"/>
  <rect id="Rectangle_15" data-name="Rectangle 15" width="91.598" height="91.598" transform="translate(492.92 384.612) rotate(-45)" fill="url(#linear-gradient)"/>
  <rect id="Rectangle_18" data-name="Rectangle 18" width="91.598" height="91.598" transform="translate(0 566.767) rotate(-45)" fill="url(#linear-gradient)"/>
  <rect id="Rectangle_9" data-name="Rectangle 9" width="91.598" height="91.598" transform="translate(1269.421 237.031) rotate(-45)" fill="url(#linear-gradient)"/>
  <path id="Exclusion_1" data-name="Exclusion 1" d="M154,308a155.143,155.143,0,0,1-31.037-3.129A153.156,153.156,0,0,1,67.9,281.7a154.45,154.45,0,0,1-55.8-67.755,153.229,153.229,0,0,1-8.973-28.907,155.5,155.5,0,0,1,0-62.073A153.155,153.155,0,0,1,26.3,67.9,154.45,154.45,0,0,1,94.056,12.1a153.232,153.232,0,0,1,28.907-8.973,155.5,155.5,0,0,1,62.073,0A153.154,153.154,0,0,1,240.1,26.3,154.45,154.45,0,0,1,295.9,94.056a153.227,153.227,0,0,1,8.973,28.907,155.5,155.5,0,0,1,0,62.073A153.155,153.155,0,0,1,281.7,240.1,154.45,154.45,0,0,1,213.944,295.9a153.225,153.225,0,0,1-28.907,8.973A155.141,155.141,0,0,1,154,308Zm0-233.775a80.366,80.366,0,0,0-16.077,1.621,79.338,79.338,0,0,0-28.526,12,80.008,80.008,0,0,0-28.9,35.1,79.378,79.378,0,0,0-4.648,14.975,80.554,80.554,0,0,0,0,32.155,79.338,79.338,0,0,0,12,28.525,80.008,80.008,0,0,0,35.1,28.9,79.367,79.367,0,0,0,14.975,4.648,80.552,80.552,0,0,0,32.155,0,79.338,79.338,0,0,0,28.525-12,80.007,80.007,0,0,0,28.9-35.1,79.37,79.37,0,0,0,4.648-14.974,80.552,80.552,0,0,0,0-32.155,79.338,79.338,0,0,0-12-28.526,80.007,80.007,0,0,0-35.1-28.9,79.376,79.376,0,0,0-14.974-4.648A80.364,80.364,0,0,0,154,74.225Z" transform="translate(961.492 302)" fill="url(#linear-gradient)"/>
</svg>
