<svg xmlns="http://www.w3.org/2000/svg" width="164.794" height="164.794" viewBox="0 0 164.794 164.794">
  <path id="Icon_awesome-bootstrap" data-name="Icon awesome-bootstrap" d="M107.521,105.221c0,15.6-14.611,15.24-16.156,15.24H61.61V90.411H91.365c15.655,0,16.156,11.734,16.156,14.809ZM89.073,78.32c.246,0,14.14.368,14.14-13.356,0-5.709-1.291-13.195-14.14-13.195H61.61V78.32Zm75.721-48.6v109.86a27.548,27.548,0,0,1-27.467,27.467H27.467A27.548,27.548,0,0,1,0,139.577V29.717A27.548,27.548,0,0,1,27.467,2.25h109.86a27.548,27.548,0,0,1,27.467,27.467ZM124.35,107.4c0-7.934-2.446-21.442-18.043-24.774v-.269c8.427-3.6,13.735-10.392,13.735-20.467,0-2.575.736-23.829-28.545-23.829H44.781v96.129c47.169,0,51.45.618,60.179-2.1,5.227-1.626,19.389-6.614,19.389-24.69Z" transform="translate(0 -2.25)" fill="#2b2b2b"/>
</svg>
