<svg xmlns="http://www.w3.org/2000/svg" width="191.429" height="166.932" viewBox="0 0 191.429 166.932">
  <path id="Icon_awesome-react" data-name="Icon awesome-react" d="M156.359,56.347q-3.028-1.006-6.057-1.9c.337-1.379.636-2.757.935-4.136,4.6-22.207,1.57-40.054-8.637-45.941-9.833-5.626-25.873.224-42.1,14.308-1.608,1.379-3.178,2.832-4.674,4.285-1.009-.969-2.056-1.938-3.1-2.869C75.712,5.041,58.663-1.293,48.456,4.631c-9.8,5.663-12.712,22.468-8.6,43.482.411,2.087.86,4.136,1.383,6.222-2.393.671-4.748,1.416-6.954,2.2C14.32,63.427,0,74.307,0,85.559c0,11.625,15.255,23.287,36.005,30.367,1.682.559,3.365,1.118,5.085,1.6-.561,2.236-1.047,4.434-1.5,6.707-3.926,20.679-.86,37.073,8.936,42.7,10.095,5.813,27.069-.149,43.6-14.569,1.309-1.155,2.617-2.347,3.926-3.614,1.645,1.6,3.365,3.13,5.085,4.62,16,13.712,31.818,19.263,41.576,13.637,10.095-5.813,13.385-23.436,9.123-44.9q-.5-2.459-1.122-5.03c1.2-.335,2.355-.708,3.515-1.081,21.573-7.117,37.2-18.63,37.2-30.441,0-11.29-14.731-22.244-35.07-29.212ZM105.772,24.714c13.909-12.072,26.882-16.8,32.79-13.413,6.319,3.614,8.749,18.22,4.786,37.409-.262,1.267-.523,2.5-.86,3.726a192.015,192.015,0,0,0-25.163-3.95A188.371,188.371,0,0,0,101.4,28.7c1.458-1.379,2.879-2.683,4.374-3.987ZM62.514,104.9c1.907,3.242,3.851,6.483,5.907,9.65a169.848,169.848,0,0,1-17.348-2.794,173.668,173.668,0,0,1,6.094-16.581c1.72,3.279,3.477,6.52,5.347,9.725ZM51.185,60.073c5.384-1.192,11.1-2.161,17.049-2.906-1.982,3.093-3.926,6.26-5.758,9.464-1.832,3.167-3.627,6.409-5.309,9.688-2.355-5.552-4.337-10.992-5.982-16.245ZM61.429,85.745c2.468-5.142,5.16-10.172,8-15.127s5.907-9.762,9.123-14.494c5.608-.41,11.329-.633,17.161-.633s11.59.224,17.161.633q4.767,7.042,9.085,14.42T130.075,85.6q-3.758,7.713-8.076,15.2c-2.842,4.956-5.87,9.762-9.048,14.531-5.571.41-11.366.6-17.236.6s-11.553-.186-17.049-.522q-4.879-7.1-9.2-14.531c-2.879-4.956-5.534-9.986-8.039-15.127Zm67.524,19.077c1.907-3.279,3.7-6.595,5.459-9.948a172.6,172.6,0,0,1,6.319,16.506,164.744,164.744,0,0,1-17.573,2.981C125.177,111.231,127.084,108.027,128.953,104.822Zm5.384-28.5c-1.757-3.279-3.552-6.558-5.421-9.762q-2.748-4.751-5.72-9.389a172.6,172.6,0,0,1,17.161,2.981,164.542,164.542,0,0,1-6.02,16.171ZM95.79,34.4A163.746,163.746,0,0,1,106.857,47.74c-7.4-.335-14.843-.335-22.246,0C88.274,42.934,92.051,38.463,95.79,34.4ZM52.419,11.561C58.7,7.91,72.646,13.126,87.34,26.092c.935.82,1.869,1.714,2.842,2.608a189.422,189.422,0,0,0-16.04,19.785,197.717,197.717,0,0,0-25.125,3.875c-.486-1.9-.9-3.838-1.309-5.775-3.515-18.034-1.2-31.633,4.711-35.024Zm-9.16,98.217c-1.57-.447-3.1-.931-4.636-1.453-7.964-2.5-17.012-6.446-23.555-11.625A16.712,16.712,0,0,1,8.039,85.559C8.039,78.74,19.853,70.022,36.9,64.1c2.131-.745,4.3-1.416,6.468-2.049a197.706,197.706,0,0,0,9.16,23.7,203.24,203.24,0,0,0-9.272,24.033Zm43.6,36.515a68.468,68.468,0,0,1-21.087,13.153,16.6,16.6,0,0,1-13.2.484c-5.945-3.428-8.412-16.581-5.047-34.279.411-2.087.86-4.173,1.383-6.222a187.652,187.652,0,0,0,25.387,3.651,196.757,196.757,0,0,0,16.152,19.9C89.247,144.131,88.05,145.249,86.854,146.292Zm9.16-9.054a176.354,176.354,0,0,1-11.329-13.525c3.589.149,7.291.224,11.03.224,3.851,0,7.627-.075,11.366-.261a160.791,160.791,0,0,1-11.067,13.563Zm48.867,11.178a16.542,16.542,0,0,1-6.169,11.662c-5.945,3.428-18.62-1.043-32.3-12.743-1.57-1.341-3.141-2.794-4.748-4.285a184.415,184.415,0,0,0,15.778-19.971,184.906,184.906,0,0,0,25.5-3.912c.374,1.528.71,3.055,1.009,4.546A67.693,67.693,0,0,1,144.881,148.416Zm6.8-40.054c-1.047.335-2.094.671-3.178.969a188.9,188.9,0,0,0-9.534-23.772,187.942,187.942,0,0,0,9.16-23.436c1.944.559,3.814,1.155,5.608,1.751,17.423,5.962,29.649,14.829,29.649,21.611,0,7.3-13.049,16.73-31.705,22.877Zm-55.971-5.589A17.065,17.065,0,1,0,78.591,85.708,17.092,17.092,0,0,0,95.715,102.773Z" transform="translate(0 -2.251)" fill="#2b2b2b"/>
</svg>
