<svg xmlns="http://www.w3.org/2000/svg" width="124.432" height="166.932" viewBox="0 0 124.432 166.932">
  <path id="Icon_simple-django" data-name="Icon simple-django" d="M60.541,0H86.752V126.352c-13.447,2.657-23.319,3.721-34.041,3.721-32,0-48.683-15.066-48.683-43.961,0-27.83,17.7-45.908,45.109-45.908a40.275,40.275,0,0,1,11.4,1.419Zm0,63.6a25.068,25.068,0,0,0-8.851-1.419c-13.28,0-20.935,8.507-20.935,23.4,0,14.538,7.321,22.509,20.768,22.509a58.126,58.126,0,0,0,9.018-.709V63.59Zm67.921-21.445v63.277c0,21.8-1.53,32.261-6.125,41.3-4.255,8.688-9.873,14.183-21.449,20.207L76.546,154.878c11.576-5.669,17.194-10.635,20.768-18.259,3.747-7.8,4.936-16.84,4.936-40.587V42.145h26.212ZM102.25.146h26.212v28H102.25Z" transform="translate(-4.029)" fill="#2b2b2b"/>
</svg>
