<svg xmlns="http://www.w3.org/2000/svg" width="28.801" height="23.392" viewBox="0 0 28.801 23.392">
  <path id="Icon_awesome-twitter" data-name="Icon awesome-twitter" d="M25.841,9.21c.018.256.018.512.018.768,0,7.8-5.939,16.795-16.795,16.795A16.681,16.681,0,0,1,0,24.123a12.211,12.211,0,0,0,1.425.073,11.822,11.822,0,0,0,7.328-2.522A5.913,5.913,0,0,1,3.235,17.58a7.444,7.444,0,0,0,1.115.091,6.243,6.243,0,0,0,1.553-.2A5.9,5.9,0,0,1,1.17,11.678V11.6a5.945,5.945,0,0,0,2.668.749A5.912,5.912,0,0,1,2.01,4.459a16.779,16.779,0,0,0,12.171,6.177,6.664,6.664,0,0,1-.146-1.352A5.908,5.908,0,0,1,24.251,5.245,11.622,11.622,0,0,0,28,3.819a5.887,5.887,0,0,1-2.6,3.253,11.833,11.833,0,0,0,3.4-.914,12.689,12.689,0,0,1-2.96,3.052Z" transform="translate(0 -3.381)" fill="#2b2b2b"/>
</svg>
