<svg xmlns="http://www.w3.org/2000/svg" width="25.201" height="25.201" viewBox="0 0 25.201 25.201">
  <path id="Icon_awesome-linkedin" data-name="Icon awesome-linkedin" d="M23.4,2.25H1.794A1.808,1.808,0,0,0,0,4.067V25.634a1.808,1.808,0,0,0,1.794,1.817H23.4a1.813,1.813,0,0,0,1.8-1.817V4.067A1.813,1.813,0,0,0,23.4,2.25ZM7.617,23.851H3.881V11.824H7.622V23.851ZM5.749,10.182A2.166,2.166,0,1,1,7.915,8.016a2.167,2.167,0,0,1-2.166,2.166ZM21.618,23.851H17.883V18c0-1.4-.028-3.19-1.941-3.19C14,14.811,13.7,16.33,13.7,17.9v5.952H9.962V11.824h3.583v1.643H13.6a3.934,3.934,0,0,1,3.538-1.941c3.78,0,4.483,2.492,4.483,5.732Z" transform="translate(0 -2.25)" fill="#2b2b2b"/>
</svg>
