<svg xmlns="http://www.w3.org/2000/svg" width="109.2" height="122.87" viewBox="0 0 109.2 122.87">
  <g id="Group_10" data-name="Group 10" transform="translate(-798 -7795)">
    <path id="Exclusion_3" data-name="Exclusion 3" d="M54.6,122.87a9.617,9.617,0,0,1-4.726-1.125L4.73,95.685a9.679,9.679,0,0,1-3.341-3.53A9.632,9.632,0,0,1,0,87.5V35.375a10.462,10.462,0,0,1,4.73-8.19L49.87,1.125a10.5,10.5,0,0,1,9.46,0l45.14,26.06a10.483,10.483,0,0,1,4.729,8.19V87.5a9.569,9.569,0,0,1-1.39,4.66h0a9.683,9.683,0,0,1-3.34,3.53l-45.14,26.06A9.659,9.659,0,0,1,54.6,122.87Zm0-97.835a36.4,36.4,0,1,0,31.52,54.63L70.37,70.545a18.2,18.2,0,1,1-.006-18.211l0,.005,0,.005,8.488-4.915,7.262-4.2A36.522,36.522,0,0,0,54.6,25.035Z" transform="translate(798 7795)" fill="#2b2b2b"/>
  </g>
</svg>
