<svg xmlns="http://www.w3.org/2000/svg" width="163.496" height="166.932" viewBox="0 0 163.496 166.932">
  <path id="Icon_simple-javascript" data-name="Icon simple-javascript" d="M0,0H163.5V166.932H0ZM150.1,127.119c-1.192-7.616-6.049-14.015-20.457-19.983-5.014-2.4-10.586-4.069-12.242-7.929-.62-2.3-.715-3.547-.313-4.9,1.022-4.493,6.233-5.843,10.321-4.591a11.169,11.169,0,0,1,6.649,6.26c7.044-4.7,7.044-4.7,11.956-7.825a28.653,28.653,0,0,0-3.992-5.425c-4.292-4.9-10.007-7.408-19.306-7.192l-4.8.619a21.875,21.875,0,0,0-11.649,6.99c-7.766,8.98-5.525,24.63,3.876,31.1,9.3,7.095,22.9,8.653,24.633,15.337,1.635,8.138-5.927,10.746-13.393,9.807-5.525-1.252-8.584-4.076-11.956-9.293L96.96,137.4c1.431,3.339,3.066,4.792,5.518,7.714,11.854,12.214,41.487,11.588,46.808-6.983a24.012,24.012,0,0,0,.5-11.477l.313.466Zm-61.2-50.393H73.594c0,13.48-.061,26.876-.061,40.377,0,8.569.429,16.436-.94,18.856-2.248,4.792-8.039,4.18-10.668,3.339-2.7-1.363-4.067-3.241-5.654-5.947a5.977,5.977,0,0,0-.865-1.363l-12.433,7.825a24.453,24.453,0,0,0,9.02,10.552c5.825,3.547,13.652,4.695,21.847,2.817,5.334-1.572,9.932-4.806,12.337-9.814,3.474-6.469,2.739-14.4,2.7-23.273.082-14.287,0-28.58,0-42.978l.027-.39Z" fill="#2b2b2b"/>
</svg>
