<svg xmlns="http://www.w3.org/2000/svg" width="177.932" height="166.932" viewBox="0 0 177.932 166.932">
  <path id="Icon_awesome-python" data-name="Icon awesome-python" d="M174.669,65.034c-3.058-11.513-8.857-20.2-21.208-20.2H137.535V62.5c0,13.712-12.391,25.263-26.53,25.263H68.589c-11.6,0-21.208,9.315-21.208,20.232v37.931c0,10.806,10.008,17.14,21.208,20.232,13.424,3.689,26.331,4.359,42.416,0,10.684-2.906,21.208-8.756,21.208-20.232V130.762H89.837v-5.067h63.624c12.352,0,16.919-8.086,21.208-20.2,4.448-12.482,4.25-24.48,0-40.465Zm-61,75.825a7.593,7.593,0,1,1-7.983,7.564A7.785,7.785,0,0,1,113.666,140.859ZM66.643,82.77h42.416c11.8,0,21.208-9.129,21.208-20.232V24.569c0-10.806-9.691-18.891-21.208-20.717a139.429,139.429,0,0,0-42.416.037c-17.951,2.981-21.208,9.2-21.208,20.717V39.772H87.891v5.067H29.509c-12.352,0-23.154,6.968-26.53,20.2C-.913,80.2-1.072,89.663,2.979,105.5c3.018,11.774,10.207,20.2,22.558,20.2H40.113V107.511C40.113,94.358,52.226,82.77,66.643,82.77ZM63.982,29.637A7.785,7.785,0,0,1,56,22.073a7.992,7.992,0,0,1,15.966,0,7.785,7.785,0,0,1-7.983,7.564Z" transform="translate(0 -2.25)" fill="#2b2b2b"/>
</svg>
