<svg xmlns="http://www.w3.org/2000/svg" width="1069.811" height="837.484" viewBox="0 0 1069.811 837.484">
  <g id="illustrationAsset1" transform="translate(-0.009 -0.017)">
    <path id="path1142" d="M223.49,557.84a4.24,4.24,0,0,1-4.23,4.23h-6a4.23,4.23,0,1,1,0,8.46h8.45a4.23,4.23,0,1,1,0,8.46H182c27.13,76,78,142.44,144.88,192.51a4.21,4.21,0,0,1,2.37-.74h48.93a4.23,4.23,0,1,1,0,8.46h-6a4.23,4.23,0,1,1,0,8.46h8.46a4.23,4.23,0,1,1,0,8.46H363.25c74.93,45.8,165.6,72.61,263.28,72.61A515.068,515.068,0,0,0,796.65,840.2q10.9-3.83,21.55-8.1,18.54-7.49,36.21-16.33,7.62-3.81,15.07-7.88l.23-.12,1.12-.62,2.91-1.61q8.81-4.92,17.35-10.18l3.5-2.17q4.44-2.79,8.79-5.67,8.68-5.71,17.06-11.8l2-1.48,1.61-1.19q11.28-8.34,21.94-17.29l.3-.25q5.22-4.39,10.29-8.93l.3-.27a437.712,437.712,0,0,0,31.51-31.2,419.945,419.945,0,0,0,40.76-52.38h-19.5a4.23,4.23,0,1,1,0-8.46h-8.45a4.23,4.23,0,0,1,0-8.46h6a4.23,4.23,0,1,1,0-8.45h37.29c31-55.72,48.43-118.5,48.43-184.93a375,375,0,0,0-20.74-123.1H989.19a8.94,8.94,0,0,1,0-17.87H971.33a8.93,8.93,0,0,1,0-17.86h12.76a8.94,8.94,0,0,1,0-17.87H1049C974.55,134.16,813.37,36.12,626.53,36.12c-109.14,0-209.51,33.45-289,89.48h20.8a8.94,8.94,0,0,1,0,17.87H345.6a8.93,8.93,0,0,1,0,17.86h17.86a8.94,8.94,0,1,1,0,17.87H274.58c-71.33,73.12-114.53,168.67-114.53,273.23a375.017,375.017,0,0,0,13.912,101.258l45.3-.078a4.25,4.25,0,0,1,4.23,4.23Z" transform="translate(-65.09 -31.25)" fill="#e28340" opacity="0.1"/>
    <path id="path1282" d="M818.2,832.1q18.54-7.49,36.21-16.33,7.62-3.81,15.07-7.88c-.05-1.24-.17-2.5-.35-3.79h0s-1.27-7-14.7-6.47a22.994,22.994,0,0,0-2.75.22A38.2,38.2,0,0,0,820.41,823,40.333,40.333,0,0,0,818.2,832.1Z" transform="translate(-65.09 -31.25)" fill="#fff" opacity="0.1"/>
    <path id="path1284" d="M835.94,733.91c.45-11.88-6-15.95-11.33-17.31a14.73,14.73,0,0,1,8.61-4.05,22.86,22.86,0,0,1,7.51,12l13.61,66.28S835.18,753.82,835.94,733.91Z" transform="translate(-65.09 -31.25)" fill="#fff" opacity="0.1"/>
    <path id="path1294" d="M580.42,106h12.76a8.94,8.94,0,0,1,0-17.87H696.54a8.94,8.94,0,0,1,0,17.87H683.78a8.93,8.93,0,0,1,0,17.86h17.86a8.94,8.94,0,0,1,0,17.87H598.28a8.94,8.94,0,0,1,0-17.87H580.42a8.93,8.93,0,0,1,0-17.86Z" transform="translate(-65.09 -31.25)" fill="#e28340" opacity="0.1"/>
    <path id="path1296" d="M727.75,242.87h12.76a8.93,8.93,0,0,1,0-17.86H843.87a8.93,8.93,0,0,1,0,17.86H831.11a8.93,8.93,0,0,1,0,17.86H849a8.94,8.94,0,0,1,0,17.87H745.61a8.94,8.94,0,0,1,0-17.87H727.75a8.93,8.93,0,0,1,0-17.86Z" transform="translate(-65.09 -31.25)" fill="#e28340" opacity="0.1"/>
    <path id="path1298" d="M578,670.28h6a4.23,4.23,0,0,1,0-8.46h49a4.23,4.23,0,0,1,0,8.46h-6a4.23,4.23,0,0,1,0,8.46h8.45a4.23,4.23,0,0,1,0,8.46H586.46a4.23,4.23,0,0,1,0-8.46H578a4.23,4.23,0,0,1,0-8.46Z" transform="translate(-65.09 -31.25)" fill="#e28340" opacity="0.1"/>
    <path id="path1300" d="M443.29,742.17h4.82a3.38,3.38,0,0,1,0-6.75h39.06a3.38,3.38,0,0,1,0,6.75h-4.82a3.38,3.38,0,0,1,0,6.75h6.75a3.38,3.38,0,0,1,0,6.75H450a3.38,3.38,0,1,1,0-6.75h-6.75a3.38,3.38,0,1,1,0-6.75Z" transform="translate(-65.09 -31.25)" fill="#e28340" opacity="0.1"/>
    <path id="path1302" d="M278.18,616.37h6.05a4.23,4.23,0,1,1,0-8.46h48.93a4.23,4.23,0,1,1,0,8.46h-6a4.23,4.23,0,1,1,0,8.46h8.46a4.23,4.23,0,1,1,0,8.46H286.64a4.23,4.23,0,1,1,0-8.46h-8.46a4.23,4.23,0,1,1,0-8.46Z" transform="translate(-65.09 -31.25)" fill="#e28340" opacity="0.1"/>
    <path id="path1304" d="M705,748.6h6a4.23,4.23,0,0,1,0-8.46h49a4.23,4.23,0,0,1,0,8.46h-6a4.23,4.23,0,0,1,0,8.46h8.46a4.23,4.23,0,0,1,0,8.45H713.44a4.23,4.23,0,1,1,0-8.45H705a4.23,4.23,0,0,1,0-8.46Z" transform="translate(-65.09 -31.25)" fill="#e28340" opacity="0.1"/>
    <path id="path1306" d="M773,339a2.84,2.84,0,0,0-.92-3.67,1.211,1.211,0,0,1-.24-.21h0a1.43,1.43,0,0,1,1.4-2.35h0a1.342,1.342,0,0,1,.3.12,2.85,2.85,0,0,0,3.68-.91,1.265,1.265,0,0,1,.21-.25h0a1.43,1.43,0,0,1,2.34,1.41h0a1.887,1.887,0,0,1-.12.3,2.84,2.84,0,0,0,.92,3.67,1.639,1.639,0,0,1,.25.21h0a1.43,1.43,0,0,1-1.41,2.34h0a1,1,0,0,1-.3-.12,2.86,2.86,0,0,0-3.68.92,1.221,1.221,0,0,1-.2.25h0a1.43,1.43,0,0,1-2.35-1.41h0a1.879,1.879,0,0,1,.12-.3Z" transform="translate(-65.09 -31.25)" fill="#e28340" opacity="0.3"/>
    <path id="path1308" d="M1089.68,170.32a2.83,2.83,0,0,0-.92-3.67,1.562,1.562,0,0,1-.24-.21h0a1.43,1.43,0,0,1,1.41-2.35h0a1.48,1.48,0,0,1,.29.12,2.84,2.84,0,0,0,3.68-.92,1.566,1.566,0,0,1,.21-.24h0a1.43,1.43,0,0,1,2.34,1.41h0a1,1,0,0,1-.12.29,2.86,2.86,0,0,0,.92,3.68,1.643,1.643,0,0,1,.25.21h0a1.43,1.43,0,0,1-1.41,2.34h0a1.247,1.247,0,0,1-.3-.12,2.85,2.85,0,0,0-3.67.92,2.527,2.527,0,0,1-.21.25h0a1.43,1.43,0,0,1-2.35-1.41h0a1.869,1.869,0,0,1,.12-.3Z" transform="translate(-65.09 -31.25)" fill="#e28340" opacity="0.3"/>
    <path id="path1310" d="M1094.55,623.38a2.84,2.84,0,0,0-.92-3.67,1.2,1.2,0,0,1-.24-.21h0a1.42,1.42,0,0,1,1.4-2.34h0a1,1,0,0,1,.3.12,2.86,2.86,0,0,0,3.68-.92,1.214,1.214,0,0,1,.2-.25h0a1.43,1.43,0,0,1,2.35,1.41h0a1.883,1.883,0,0,1-.12.3,2.84,2.84,0,0,0,.92,3.67,1.211,1.211,0,0,1,.24.21h0A1.42,1.42,0,0,1,1101,624h0a1,1,0,0,1-.3-.11,2.85,2.85,0,0,0-3.68.91,1.273,1.273,0,0,1-.21.25h0a1.43,1.43,0,0,1-2.34-1.41h0A1.879,1.879,0,0,1,1094.55,623.38Z" transform="translate(-65.09 -31.25)" fill="#e28340" opacity="0.3"/>
    <path id="path1312" d="M114.38,69.27a2.85,2.85,0,0,0-.92-3.68,1.21,1.21,0,0,1-.24-.21h0a1.42,1.42,0,0,1,1.4-2.34h0a1.34,1.34,0,0,1,.3.12,2.85,2.85,0,0,0,3.68-.92,1.64,1.64,0,0,1,.21-.25h0a1.43,1.43,0,0,1,2.34,1.41h0a1.34,1.34,0,0,1-.12.3,2.85,2.85,0,0,0,.92,3.68,1.57,1.57,0,0,1,.25.2h0a1.43,1.43,0,0,1-1.41,2.35h0a1.34,1.34,0,0,1-.3-.12,2.85,2.85,0,0,0-3.68.92,1.16,1.16,0,0,1-.2.24h0a1.43,1.43,0,0,1-2.35-1.4h0A1.34,1.34,0,0,1,114.38,69.27Z" transform="translate(-65.09 -31.25)" fill="#e28340" opacity="0.3"/>
    <path id="path1314" d="M66.63,38.9a2.84,2.84,0,0,0-.92-3.67,1.21,1.21,0,0,1-.24-.21h0a1.43,1.43,0,0,1,1.4-2.35h0a1.34,1.34,0,0,1,.3.12,2.85,2.85,0,0,0,3.68-.91,1.69,1.69,0,0,1,.2-.25h0A1.43,1.43,0,0,1,73.4,33h0a1.48,1.48,0,0,1-.12.29A2.85,2.85,0,0,0,74.2,37a1.21,1.21,0,0,1,.24.21h0A1.42,1.42,0,0,1,73,39.56h0a1,1,0,0,1-.3-.12,2.86,2.86,0,0,0-3.68.92,1.27,1.27,0,0,1-.21.25h0a1.43,1.43,0,0,1-2.34-1.41h0a1.88,1.88,0,0,1,.16-.3Z" transform="translate(-65.09 -31.25)" fill="#e28340" opacity="0.3"/>
    <path id="path1316" d="M447,259.45a2.84,2.84,0,0,0-.92-3.67,1.211,1.211,0,0,1-.24-.21h0a1.43,1.43,0,0,1,1.4-2.35h0a1.34,1.34,0,0,1,.3.12,2.85,2.85,0,0,0,3.68-.91,1.22,1.22,0,0,1,.2-.25h0a1.43,1.43,0,0,1,2.35,1.41h0a1.48,1.48,0,0,1-.12.29,2.85,2.85,0,0,0,.92,3.68,1.21,1.21,0,0,1,.24.21h0a1.42,1.42,0,0,1-1.4,2.34h0a1,1,0,0,1-.3-.12,2.86,2.86,0,0,0-3.68.92,1.27,1.27,0,0,1-.21.25h0a1.43,1.43,0,0,1-2.34-1.41h0A1.881,1.881,0,0,1,447,259.45Z" transform="translate(-65.09 -31.25)" fill="#e28340" opacity="0.3"/>
    <path id="path1318" d="M270.63,376.94a2.84,2.84,0,0,0-.92-3.67,1.211,1.211,0,0,1-.24-.21h0a1.42,1.42,0,0,1,1.4-2.34h0a1,1,0,0,1,.3.12,2.86,2.86,0,0,0,3.68-.92,1.689,1.689,0,0,1,.2-.25h0a1.43,1.43,0,0,1,2.35,1.41h0a1.881,1.881,0,0,1-.12.3,2.84,2.84,0,0,0,.92,3.67,1.209,1.209,0,0,1,.24.21h0a1.42,1.42,0,0,1-1.4,2.34h0a1,1,0,0,1-.3-.12,2.86,2.86,0,0,0-3.68.92,1.7,1.7,0,0,1-.2.25h0a1.43,1.43,0,0,1-2.35-1.41h0A1.879,1.879,0,0,1,270.63,376.94Z" transform="translate(-65.09 -31.25)" fill="#e28340" opacity="0.3"/>
    <path id="path1320" d="M546.63,223.29a2.84,2.84,0,0,0-1.34-3.54,1.269,1.269,0,0,1-.27-.18h0a1.42,1.42,0,0,1,1.12-2.49h0a1.09,1.09,0,0,1,.31.08,2.86,2.86,0,0,0,3.55-1.34,1.586,1.586,0,0,1,.18-.27h0a1.43,1.43,0,0,1,2.49,1.13h0a1.808,1.808,0,0,1-.09.31,2.85,2.85,0,0,0,1.35,3.54,1.511,1.511,0,0,1,.26.18h0a1.43,1.43,0,0,1-1.12,2.49h0a1.573,1.573,0,0,1-.31-.08,2.84,2.84,0,0,0-3.54,1.34,2.111,2.111,0,0,1-.18.27h0a1.43,1.43,0,0,1-2.49-1.13h0a1.179,1.179,0,0,1,.08-.31Z" transform="translate(-65.09 -31.25)" fill="#e28340" opacity="0.3"/>
    <path id="path1322" d="M996.53,532.23a3.94,3.94,0,0,0,2.2-4.77,2.146,2.146,0,0,1-.08-.44h0a2,2,0,0,1,3.55-1.31h0a1.876,1.876,0,0,1,.22.39,3.94,3.94,0,0,0,4.77,2.2,2.149,2.149,0,0,1,.44-.09h0a2,2,0,0,1,1.31,3.56h0a1.869,1.869,0,0,1-.39.22,4,4,0,0,0-2.2,4.77,1.641,1.641,0,0,1,.09.44h0a2,2,0,0,1-3.56,1.31h0a1.472,1.472,0,0,1-.21-.39,3.94,3.94,0,0,0-4.77-2.2,2.287,2.287,0,0,1-.44.09h0a2,2,0,0,1-1.31-3.56h0A2.082,2.082,0,0,1,996.53,532.23Z" transform="translate(-65.09 -31.25)" fill="#e28340" opacity="0.3"/>
    <path id="path1324" d="M387.59,570.11a4,4,0,0,0,2.2-4.77,1.649,1.649,0,0,1-.09-.43h0a2,2,0,0,1,3.56-1.32h0a2.155,2.155,0,0,1,.22.39,3.93,3.93,0,0,0,4.77,2.2,1.562,1.562,0,0,1,.43-.08h0a2,2,0,0,1,1.31,3.55h0a1.787,1.787,0,0,1-.38.22,3.94,3.94,0,0,0-2.2,4.77,2.139,2.139,0,0,1,.08.44h0a2,2,0,0,1-3.55,1.31h0a1.87,1.87,0,0,1-.22-.39,4,4,0,0,0-4.77-2.2,2.147,2.147,0,0,1-.44.09h0a2,2,0,0,1-1.31-3.56h0a1.87,1.87,0,0,1,.39-.22Z" transform="translate(-65.09 -31.25)" fill="#e28340" opacity="0.3"/>
    <path id="path1326" d="M577.93,579.82a3.94,3.94,0,0,0,2.2-4.77,2.292,2.292,0,0,1-.09-.44h0a2,2,0,0,1,3.56-1.31h0a1.869,1.869,0,0,1,.22.39,3.94,3.94,0,0,0,4.77,2.19,2.141,2.141,0,0,1,.44-.08h0a2,2,0,0,1,1.31,3.55h0a1.869,1.869,0,0,1-.39.22,3.94,3.94,0,0,0-2.2,4.77,2.3,2.3,0,0,1,.09.44h0a2,2,0,0,1-3.56,1.31h0a1.869,1.869,0,0,1-.22-.39,4,4,0,0,0-4.77-2.2,1.636,1.636,0,0,1-.44.09h0a2,2,0,0,1-1.31-3.55h0A1.869,1.869,0,0,1,577.93,579.82Z" transform="translate(-65.09 -31.25)" fill="#e28340" opacity="0.3"/>
    <circle id="circle1328" cx="16.5" cy="16.5" r="16.5" transform="translate(105.37 86.79)" fill="#e28340" opacity="0.1"/>
    <circle id="circle1330" cx="16.5" cy="16.5" r="16.5" transform="translate(928.15 103.29)" fill="#e28340" opacity="0.1"/>
    <circle id="circle1332" cx="9" cy="9" r="9" transform="translate(190.87 12.37)" fill="#e28340" opacity="0.1"/>
    <circle id="circle1334" cx="9" cy="9" r="9" transform="translate(1051.82 274.28)" fill="#e28340" opacity="0.1"/>
    <circle id="circle1336" cx="9" cy="9" r="9" transform="translate(129.37 734.99)" fill="#e28340" opacity="0.1"/>
    <circle id="circle1338" cx="9" cy="9" r="9" transform="translate(163.87 775.52)" fill="#e28340" opacity="0.1"/>
    <circle id="circle1340" cx="9" cy="9" r="9" transform="translate(96.37 799.95)" fill="#e28340" opacity="0.1"/>
    <circle id="circle12" cx="73.536" cy="73.536" r="73.536" transform="translate(334.475 197.093)" fill="#d79f72"/>
    <path id="path14" d="M353.126,307.4s13.855,104.443-7.46,116.166,126.823,12.789,126.823,12.789-33.038-90.588-18.118-118.3Z" fill="#d79f72"/>
    <path id="path16" d="M580.66,436.88l-12.32,56.1L542.29,611.67l-.78,6.5-8.99,75.25-5.98,49.99-4.01,33.58c-24.38,12.53-42.05,21.18-42.05,21.18s-1.52-7.62-3.97-17.37c-17.11,5.13-48.77,13.64-75.6,15.34,9.77,10.89,14.26,21.12,8.17,28.67-18.38,22.76-94.26-24.92-120.8-42.7a71.842,71.842,0,0,0-.7,12.86l-20.31-15.62,2.01-35.94,3.39-60.81,4.26-76.26a80.07,80.07,0,0,1-3.37-10.03c-6.22-22.12-13.77-66.29-19.56-103.33-4.66-29.81-8.16-55-8.9-60.36-.1-.7-.15-1.06-.15-1.06l112.43-49.68c7.99,18.53,45.3,24.1,45.3,24.1,30.91-2.13,55.14-18.43,55.14-18.43Z" fill="#e1dccd"/>
    <path id="path18" d="M489.01,776.86s-4.76,1.63-12.5,3.94c-17.11,5.13-48.77,13.64-75.6,15.34-23.1,1.48-42.62-2.08-46.19-17.15-1.53-6.48.64-11.81,5.37-16.19,14.12-13.09,51-17.78,80.25-19.39,8.26-.45,15.9-.66,22.26-.74,10.8-.14,17.88.08,17.88.08l.17.66Z" fill="#a0616a"/>
    <path id="path20" d="M346.836,201.071l-13.749-5.5s28.749-31.651,68.747-28.9l-11.25-12.385s27.5-11.009,52.5,17.89c13.141,15.191,28.346,33.048,37.825,53.163h14.725l-6.146,13.532L511,252.4l-22.077-2.431a75.617,75.617,0,0,1,.6,22.445,29.041,29.041,0,0,1-10.634,19h0s-17.052-35.3-17.052-40.8v13.761s-13.749-12.385-13.749-20.642l-7.5,9.633-3.75-15.137-46.248,15.137,7.5-12.385-28.749,4.128,11.25-15.137s-32.5,17.89-33.749,33.027-10.762,29.481-10.762,29.481-25.486-70.764,10.762-91.406Z" fill="#4a2525"/>
    <path id="path22" d="M660.59,694.79c-7.49,8.12-26.05,20.35-48.55,33.59-8.37,4.92-17.28,9.99-26.37,15.03-21.69,12.03-44.4,23.95-63.14,33.58-24.38,12.53-42.05,21.18-42.05,21.18s-1.52-7.62-3.97-17.37c-3.28-13.05-8.22-29.92-13.37-37.39-.18-.26-.36-.5-.54-.74-1.5-1.97-3.01-3.12-4.5-3.12l74.42-46.13,32.16-19.94-23.17-55.31-29.06-69.38,17.54-55.81,17.63-56.1h33.04s10.94,23.88,24.93,57.18c2.09,4.98,4.25,10.17,6.45,15.53,28.78,70,64.66,167.75,48.55,185.2Z" fill="#e1dccd"/>
    <path id="path24" d="M409.08,824.81c-18.38,22.76-94.26-24.92-120.8-42.7-5.78-3.87-9.22-6.32-9.22-6.32l24.28-32.38,7.69-10.25s6.88,3.65,17.05,9.59c.37.22.74.44,1.12.66,8.77,5.15,19.78,11.88,30.89,19.39,15.33,10.37,30.83,22.2,40.82,33.34C410.68,807.03,415.17,817.26,409.08,824.81Z" fill="#a0616a"/>
    <path id="path26" d="M328.08,742.75a47.779,47.779,0,0,0-8.1.66c-22.99,3.95-29.77,24.76-31.7,38.7a71.842,71.842,0,0,0-.7,12.86l-20.31-15.62-7.4-5.69c-17.81-6.21-33.68-17.24-47.44-30.25a238.483,238.483,0,0,1-31.95-37.89,334.147,334.147,0,0,1-24.72-42.4,31.184,31.184,0,0,1-.43-26.45l25.15-56.05,36.76-81.92q.4-2.925.89-5.72c7.29-41.8,26.82-60.36,26.82-60.36h14.92l9.98,60.36,12.4,74.99-8.69,28.34-20.08,65.45,19.19,20.84Z" fill="#e1dccd"/>
    <path id="path28" d="M344.966,568.03l12.755,14.881c4.739-.9,9.687-1.965,14.784-3.158l-3.663-11.723,8.957,10.45c54-13.281,120.927-39.1,120.927-39.1s-72.257,5.3-126.208-6.489c-23.871-5.215-48.431,6.618-58.226,29-5.694,13.011-4.8,24.283,15.394,24.283a133.38,133.38,0,0,0,20.353-1.914Z" fill="#e28340"/>
    <path id="path30" d="M635.74,812.61v6.07a13.34,13.34,0,0,1-.91,4.87,13.688,13.688,0,0,1-.97,2,13.437,13.437,0,0,1-11.55,6.56H175.76a13.437,13.437,0,0,1-11.55-6.56,13.681,13.681,0,0,1-.97-2,13.34,13.34,0,0,1-.91-4.87v-6.07a13.426,13.426,0,0,1,13.43-13.43H201.5v-2.83a.559.559,0,0,1,.56-.56h13.43a.559.559,0,0,1,.56.56v2.83h8.39v-2.83a.559.559,0,0,1,.56-.56h13.43a.559.559,0,0,1,.56.56v2.83h8.4v-2.83a.559.559,0,0,1,.56-.56h13.43a.559.559,0,0,1,.56.56v2.83h8.39v-2.83a.559.559,0,0,1,.56-.56h13.43a.559.559,0,0,1,.56.56v2.83h8.39v-2.83a.559.559,0,0,1,.56-.56h13.43a.559.559,0,0,1,.56.56v2.83h8.4v-2.83a.559.559,0,0,1,.56-.56h13.43a.559.559,0,0,1,.56.56v2.83h8.39v-2.83a.559.559,0,0,1,.56-.56h105.2a.559.559,0,0,1,.56.56v2.83h8.4v-2.83a.559.559,0,0,1,.56-.56h13.43a.566.566,0,0,1,.56.56v2.83h8.39v-2.83a.559.559,0,0,1,.56-.56h13.43a.559.559,0,0,1,.56.56v2.83h8.39v-2.83a.559.559,0,0,1,.56-.56h13.43a.559.559,0,0,1,.56.56v2.83h8.4v-2.83a.559.559,0,0,1,.56-.56H536.7a.557.557,0,0,1,.55.56v2.83h8.4v-2.83a.559.559,0,0,1,.56-.56h13.43a.559.559,0,0,1,.56.56v2.83h8.39v-2.83a.559.559,0,0,1,.56-.56h13.43a.559.559,0,0,1,.56.56v2.83h39.17a13.426,13.426,0,0,1,13.43,13.43Z" fill="#1b1b1b"/>
    <path id="path34" d="M599.784,556.981H433.341V553.55H357.87v3.431H190.741a11.259,11.259,0,0,0-11.259,11.259V796.151a11.259,11.259,0,0,0,11.259,11.259H599.784a11.259,11.259,0,0,0,11.259-11.259V568.239a11.259,11.259,0,0,0-11.259-11.259Z" fill="#1b1b1b"/>
    <circle id="circle36" cx="25" cy="25" r="25" transform="translate(370.59 611.55)" fill="none" stroke="#838383" stroke-miterlimit="10" stroke-width="2"/>
    <circle id="circle38" cx="25" cy="25" r="25" transform="translate(362.59 620.55)" fill="#e28340"/>
    <path id="polygon137" d="M703.552,138.016H643.134l-.293.3-126.5,127.5,1.422,1.406,126.206-127.2h59.583Z" transform="translate(-21.829 94.698)" fill="#3f3d56"/>
    <rect id="rect139" width="146.224" height="13.03" transform="translate(754.499 182.49)" fill="#e28340"/>
    <path id="path141" d="M736.677,203.759H705.722V172.8h30.955Zm-28.955-2h26.955V174.8H707.722Z" fill="#3f3d56"/>
    <rect id="rect143" width="146.224" height="13.03" transform="translate(754.499 225.923)" fill="#e28340"/>
    <path id="path145" d="M736.677,247.192H705.722V216.237h30.955Zm-28.955-2h26.955V218.237H707.722Z" fill="#3f3d56"/>
    <rect id="rect147" width="146.224" height="13.03" transform="translate(754.499 269.356)" fill="#e28340"/>
    <path id="path149" d="M736.677,290.624H705.722V259.669h30.955Zm-28.955-2h26.955V261.669H707.722Z" fill="#3f3d56"/>
    <g id="g1110" transform="translate(632.698 208.441)">
      <path id="path93" d="M54.262,494.435h0a249.625,249.625,0,0,1-2.095-54.111l2.095-29.889h0c-11.542,22.966-8.933,53.192,0,84Z" fill="#cacaca"/>
      <path id="path95" d="M63.262,499.435h0a183.5,183.5,0,0,1-1.008-32.209l1.008-17.791h0C57.709,463.105,58.964,481.1,63.262,499.435Z" fill="#cacaca"/>
      <path id="path97" d="M103.266,521.438v10a3.016,3.016,0,0,1-3,3h-5a1,1,0,0,0-1,1v82a3.016,3.016,0,0,1-3,3h-61a3,3,0,0,1-3-3v-82a1,1,0,0,0-1-1h-6a3,3,0,0,1-3-3v-10a3,3,0,0,1,3-3h80a3.009,3.009,0,0,1,3,3Z" fill="#f2f2f2"/>
      <rect id="rect99" width="67" height="3" transform="translate(27.356 536.538)" fill="#e6e6e6"/>
      <path id="path101" d="M94.266,580.682c-22.42,9.278-45.084,9.38-68,0V559.547a106.789,106.789,0,0,1,68,0Z" fill="#e6e6e6"/>
    </g>
  </g>
</svg>
