<svg xmlns="http://www.w3.org/2000/svg" width="774" height="774" viewBox="0 0 774 774">
  <path id="Exclusion_2" data-name="Exclusion 2" d="M387,774a389.871,389.871,0,0,1-77.994-7.862,384.876,384.876,0,0,1-138.382-58.231A388.129,388.129,0,0,1,30.412,537.638a385.062,385.062,0,0,1-22.55-72.644,390.778,390.778,0,0,1,0-155.988A384.876,384.876,0,0,1,66.093,170.625,388.131,388.131,0,0,1,236.362,30.412a385.071,385.071,0,0,1,72.644-22.55,390.778,390.778,0,0,1,155.988,0A384.876,384.876,0,0,1,603.376,66.093,388.132,388.132,0,0,1,743.588,236.362a385.057,385.057,0,0,1,22.55,72.644,390.78,390.78,0,0,1,0,155.988,384.876,384.876,0,0,1-58.231,138.381A388.13,388.13,0,0,1,537.638,743.588a385.049,385.049,0,0,1-72.644,22.55A389.867,389.867,0,0,1,387,774Zm0-587.473a201.957,201.957,0,0,0-40.4,4.073,199.375,199.375,0,0,0-71.684,30.165,201.059,201.059,0,0,0-72.633,88.2A199.473,199.473,0,0,0,190.6,346.6a202.43,202.43,0,0,0,0,80.8,199.375,199.375,0,0,0,30.165,71.684,201.058,201.058,0,0,0,88.2,72.632A199.444,199.444,0,0,0,346.6,583.4a202.427,202.427,0,0,0,80.8,0,199.376,199.376,0,0,0,71.684-30.165,201.056,201.056,0,0,0,72.632-88.2A199.451,199.451,0,0,0,583.4,427.4a202.427,202.427,0,0,0,0-80.8,199.377,199.377,0,0,0-30.165-71.684,201.056,201.056,0,0,0-88.2-72.633A199.469,199.469,0,0,0,427.4,190.6,201.953,201.953,0,0,0,387,186.527Z" fill="rgba(254,142,61,0.56)"/>
</svg>
